<svg width="108" height="108" viewBox="0 0 108 108" fill="none" xmlns="http://www.w3.org/2000/svg">
<g opacity="0.15">
<path d="M54.227 94.4996C54.1514 94.5 54.0758 94.5 54.0002 94.5C53.9246 94.5 53.849 94.5 53.7734 94.4996C53.8499 94.4244 53.9255 94.3488 54.0002 94.2728C54.0749 94.3488 54.1505 94.4244 54.227 94.4996Z" fill="white"/>
<path fill-rule="evenodd" clip-rule="evenodd" d="M87.4114 92.6809C87.4348 92.2874 87.4471 91.8907 87.4471 91.4912C87.4471 80.75 78.7119 72.0426 67.9365 72.0426H40.0641C29.2887 72.0426 20.5535 80.75 20.5535 91.4912C20.5535 91.8907 20.5656 92.2874 20.5894 92.6809C10.3045 83.5222 3.83008 70.2011 3.83008 55.3724C3.83008 27.7522 26.2921 5.36171 54.0003 5.36171C81.7087 5.36171 104.171 27.7522 104.171 55.3724C104.171 70.2011 97.6958 83.5222 87.4114 92.6809ZM54.0003 55.3724C63.2366 55.3724 70.7237 47.9091 70.7237 38.7021C70.7237 29.4955 63.2366 22.0319 54.0003 22.0319C44.764 22.0319 37.2769 29.4955 37.2769 38.7021C37.2769 47.9091 44.764 55.3724 54.0003 55.3724Z" fill="white"/>
</g>
<path d="M87.4471 91.3952C87.4471 82.3662 80.9155 70.7234 70.7237 70.7234H37.2769C27.0852 70.7234 20.5535 82.3662 20.5535 91.3952M3.83008 54C3.83008 26.2918 26.2921 3.82979 54.0003 3.82979C81.7087 3.82979 104.171 26.2918 104.171 54C104.171 81.7085 81.7087 104.17 54.0003 104.17C26.2921 104.17 3.83008 81.7085 3.83008 54ZM70.7237 37.2766C70.7237 46.5129 63.2366 54 54.0003 54C44.764 54 37.2769 46.5129 37.2769 37.2766C37.2769 28.0405 44.764 20.5532 54.0003 20.5532C63.2366 20.5532 70.7237 28.0405 70.7237 37.2766Z" stroke="white" stroke-width="4"/>
</svg>
