<svg width="100" height="78" viewBox="0 0 100 78" fill="none" xmlns="http://www.w3.org/2000/svg">
<g clip-path="url(#clip0_317_14)">
<path d="M28.023 1.21289L0.304688 48.0249L40.7721 77.6551L66.7749 29.5931L28.023 1.21289Z" fill="#E52421" stroke="#1D1D1B" stroke-width="2" stroke-miterlimit="10"/>
<path d="M28.6289 1.09714L65.5346 0.233765L99.397 26.547L66.7754 29.5931L28.6289 1.09714Z" fill="#66B32E" stroke="#1D1D1B" stroke-width="2" stroke-miterlimit="10"/>
<path d="M41.209 77.7338H73.5L99.5972 26.9822L66.776 29.5931L41.209 77.7338Z" fill="#2A4B9B" stroke="#1D1D1B" stroke-width="2" stroke-miterlimit="10"/>
<path d="M11.4824 56.2165L40.1571 9.73315" stroke="#1D1D1B" stroke-width="2" stroke-miterlimit="10"/>
<path d="M25.457 66.7114L53.3175 19.7998" stroke="#1D1D1B" stroke-width="2" stroke-miterlimit="10"/>
<path d="M17.8809 18.3392L58.0455 45.7265" stroke="#1D1D1B" stroke-width="2" stroke-miterlimit="10"/>
<path d="M8.94727 33.4286L49.9513 60.6932" stroke="#1D1D1B" stroke-width="2" stroke-miterlimit="10"/>
<path d="M77.4231 28.6719L53 77.5" stroke="#1D1D1B" stroke-width="2" stroke-miterlimit="10"/>
<path d="M89.4361 27.79L63.5 77.5" stroke="#1D1D1B" stroke-width="2" stroke-miterlimit="10"/>
<path d="M58.0469 45.7265L90.3084 44.1248" stroke="#1D1D1B" stroke-width="2" stroke-miterlimit="10"/>
<path d="M49.9512 60.6932L82.2242 59.0452" stroke="#1D1D1B" stroke-width="2" stroke-miterlimit="10"/>
<path d="M77.5648 28.7344L40.7715 0.844849" stroke="#1D1D1B" stroke-width="2" stroke-miterlimit="10"/>
<path d="M89.7021 27.7691L53.5234 0.530029" stroke="#1D1D1B" stroke-width="2" stroke-miterlimit="10"/>
<path d="M39.9473 9.81189L75.4632 7.99023" stroke="#1D1D1B" stroke-width="2" stroke-miterlimit="10"/>
<path d="M53.3184 19.7997L87.511 17.4041" stroke="#1D1D1B" stroke-width="2" stroke-miterlimit="10"/>
</g>
<defs>
<clipPath id="clip0_317_14">
<rect width="100" height="78" fill="white"/>
</clipPath>
</defs>
</svg>
