<svg width="29" height="29" viewBox="0 0 29 29" fill="none" xmlns="http://www.w3.org/2000/svg">
<path opacity="0.15" fill-rule="evenodd" clip-rule="evenodd" d="M14.5 25.375C20.5061 25.375 25.375 20.5061 25.375 14.5C25.375 8.49391 20.5061 3.625 14.5 3.625C8.49391 3.625 3.625 8.49391 3.625 14.5C3.625 20.5061 8.49391 25.375 14.5 25.375ZM10.875 13.2917C12.2097 13.2917 13.2917 12.2097 13.2917 10.875C13.2917 9.54031 12.2097 8.45833 10.875 8.45833C9.54031 8.45833 8.45833 9.54031 8.45833 10.875C8.45833 12.2097 9.54031 13.2917 10.875 13.2917ZM18.125 20.5417C19.4597 20.5417 20.5417 19.4597 20.5417 18.125C20.5417 16.7903 19.4597 15.7083 18.125 15.7083C16.7903 15.7083 15.7083 16.7903 15.7083 18.125C15.7083 19.4597 16.7903 20.5417 18.125 20.5417Z" fill="#FF0000"/>
<path d="M9.66667 19.3333L19.3333 9.66667M25.375 14.5C25.375 20.5061 20.5061 25.375 14.5 25.375C8.49391 25.375 3.625 20.5061 3.625 14.5C3.625 8.49391 8.49391 3.625 14.5 3.625C20.5061 3.625 25.375 8.49391 25.375 14.5ZM20.5417 18.125C20.5417 19.4597 19.4597 20.5417 18.125 20.5417C16.7903 20.5417 15.7083 19.4597 15.7083 18.125C15.7083 16.7903 16.7903 15.7083 18.125 15.7083C19.4597 15.7083 20.5417 16.7903 20.5417 18.125ZM13.2917 10.875C13.2917 12.2097 12.2097 13.2917 10.875 13.2917C9.54031 13.2917 8.45833 12.2097 8.45833 10.875C8.45833 9.54031 9.54031 8.45833 10.875 8.45833C12.2097 8.45833 13.2917 9.54031 13.2917 10.875Z" stroke="#FF0000" stroke-width="2" stroke-linecap="round" stroke-linejoin="round"/>
</svg>
