<svg width="22" height="22" viewBox="0 0 22 22" fill="none" xmlns="http://www.w3.org/2000/svg">
<path fill-rule="evenodd" clip-rule="evenodd" d="M9.5781 2.07905C10.1377 0.861996 11.8622 0.861996 12.4218 2.07905L14.6197 6.85891L19.8309 7.47868C21.1577 7.63649 21.6906 9.28161 20.7096 10.1915L16.8569 13.7654L17.8796 18.9284C18.14 20.243 16.7449 21.2597 15.579 20.605L10.9999 18.0339L6.42087 20.605C5.25494 21.2597 3.85986 20.243 4.12026 18.9284L5.14297 13.7654L1.29025 10.1915C0.309266 9.28161 0.842145 7.63649 2.16901 7.47868L7.38013 6.85891L9.5781 2.07905ZM11.3569 3.51313C11.2166 3.20815 10.7832 3.20815 10.643 3.51313L8.80197 7.51678C8.57388 8.01276 8.10528 8.35431 7.56449 8.41866L3.19702 8.93809C2.86447 8.97762 2.73072 9.38847 2.97624 9.61617L6.20608 12.6123C6.60589 12.9832 6.7849 13.5358 6.67877 14.0716L5.82172 18.3982C5.75655 18.7272 6.107 18.9813 6.39942 18.817L10.2351 16.6634C10.7103 16.3966 11.2895 16.3966 11.7647 16.6634L15.6004 18.817C15.8929 18.9813 16.2433 18.7272 16.1782 18.3982L15.3211 14.0716C15.215 13.5358 15.394 12.9832 15.7938 12.6123L19.0236 9.61617C19.2691 9.38847 19.1354 8.97762 18.8029 8.93809L14.4354 8.41866C13.8946 8.35431 13.426 8.01284 13.1979 7.51678L11.3569 3.51313Z" fill="white"/>
</svg>
