<svg width="108" height="108" viewBox="0 0 108 108" fill="none" xmlns="http://www.w3.org/2000/svg">
<g opacity="0.15">
<path d="M54.2265 94.4995C54.1509 94.5 54.0753 94.5 53.9997 94.5C53.9241 94.5 53.8485 94.5 53.7729 94.4995C53.8494 94.4244 53.925 94.3488 53.9997 94.2727C54.0744 94.3488 54.15 94.4244 54.2265 94.4995Z" fill="#A2A2A2"/>
<path fill-rule="evenodd" clip-rule="evenodd" d="M87.4109 92.6808C87.4343 92.2874 87.4466 91.8907 87.4466 91.4911C87.4466 80.75 78.7114 72.0426 67.936 72.0426H40.0636C29.2882 72.0426 20.553 80.75 20.553 91.4911C20.553 91.8907 20.5651 92.2874 20.5889 92.6808C10.3041 83.5222 3.82959 70.201 3.82959 55.3723C3.82959 27.7522 26.2916 5.36169 53.9998 5.36169C81.7083 5.36169 104.17 27.7522 104.17 55.3723C104.17 70.201 97.6953 83.5222 87.4109 92.6808ZM53.9998 55.3723C63.2361 55.3723 70.7232 47.9091 70.7232 38.7021C70.7232 29.4954 63.2361 22.0319 53.9998 22.0319C44.7635 22.0319 37.2764 29.4954 37.2764 38.7021C37.2764 47.9091 44.7635 55.3723 53.9998 55.3723Z" fill="#A2A2A2"/>
</g>
<path d="M87.4466 91.3952C87.4466 82.3663 80.915 70.7235 70.7232 70.7235H37.2764C27.0847 70.7235 20.553 82.3663 20.553 91.3952M3.82959 54C3.82959 26.2918 26.2916 3.82983 53.9998 3.82983C81.7083 3.82983 104.17 26.2918 104.17 54C104.17 81.7085 81.7083 104.17 53.9998 104.17C26.2916 104.17 3.82959 81.7085 3.82959 54ZM70.7232 37.2766C70.7232 46.513 63.2361 54 53.9998 54C44.7635 54 37.2764 46.513 37.2764 37.2766C37.2764 28.0406 44.7635 20.5532 53.9998 20.5532C63.2361 20.5532 70.7232 28.0406 70.7232 37.2766Z" stroke="#A2A2A2" stroke-width="4"/>
</svg>
