<svg width="45" height="45" viewBox="0 0 45 45" fill="none" xmlns="http://www.w3.org/2000/svg">
<path d="M9.44166 16.951C9.35936 16.2099 8.69192 15.6759 7.9509 15.7582C7.20986 15.8405 6.67585 16.508 6.75815 17.249L9.44166 16.951ZM38.2416 17.2488C38.3239 16.5078 37.7898 15.8404 37.0488 15.7582C36.3077 15.676 35.6403 16.2101 35.5582 16.9511L38.2416 17.2488ZM4.4999 15.75C3.75432 15.75 3.1499 16.3544 3.1499 17.1C3.1499 17.8456 3.75432 18.45 4.4999 18.45V15.75ZM40.4999 18.45C41.2455 18.45 41.8499 17.8456 41.8499 17.1C41.8499 16.3544 41.2455 15.75 40.4999 15.75V18.45ZM8.69243 16.4962C8.35899 17.1631 8.6293 17.974 9.29616 18.3075C9.96303 18.6409 10.7739 18.3706 11.1074 17.7037L8.69243 16.4962ZM14.7074 10.5037C15.0408 9.83685 14.7705 9.02593 14.1036 8.6925C13.4368 8.35907 12.6259 8.62937 12.2924 9.29624L14.7074 10.5037ZM33.8925 17.7037C34.2258 18.3706 35.0367 18.6409 35.7036 18.3075C36.3705 17.974 36.6409 17.1631 36.3073 16.4962L33.8925 17.7037ZM32.7073 9.29624C32.374 8.62937 31.5631 8.35907 30.8962 8.6925C30.2293 9.02593 29.9589 9.83685 30.2925 10.5037L32.7073 9.29624ZM15.7499 27.9C15.7499 28.6455 16.3543 29.25 17.0999 29.25C17.8455 29.25 18.4499 28.6455 18.4499 27.9H15.7499ZM18.4499 24.3C18.4499 23.5544 17.8455 22.95 17.0999 22.95C16.3543 22.95 15.7499 23.5544 15.7499 24.3H18.4499ZM21.1499 27.9C21.1499 28.6455 21.7543 29.25 22.4999 29.25C23.2455 29.25 23.8499 28.6455 23.8499 27.9H21.1499ZM23.8499 24.3C23.8499 23.5544 23.2455 22.95 22.4999 22.95C21.7543 22.95 21.1499 23.5544 21.1499 24.3H23.8499ZM26.5499 27.9C26.5499 28.6455 27.1543 29.25 27.8999 29.25C28.6455 29.25 29.2499 28.6455 29.2499 27.9H26.5499ZM29.2499 24.3C29.2499 23.5544 28.6455 22.95 27.8999 22.95C27.1543 22.95 26.5499 23.5544 26.5499 24.3H29.2499ZM6.75815 17.249L8.40155 32.0468L11.0851 31.7487L9.44166 16.951L6.75815 17.249ZM8.40155 32.0468C8.68017 34.5528 10.798 36.4491 13.3194 36.45L13.3204 33.75C12.1743 33.7496 11.2117 32.888 11.0851 31.7487L8.40155 32.0468ZM13.3194 36.45H31.6799L31.6801 33.75H13.3204L13.3194 36.45ZM31.6799 36.45C34.2022 36.4503 36.3214 34.5539 36.6 32.047L33.9166 31.7486C33.7899 32.8881 32.8267 33.7502 31.6801 33.75L31.6799 36.45ZM36.6 32.047L38.2416 17.2488L35.5582 16.9511L33.9166 31.7486L36.6 32.047ZM4.4999 18.45H40.4999V15.75H4.4999V18.45ZM11.1074 17.7037L14.7074 10.5037L12.2924 9.29624L8.69243 16.4962L11.1074 17.7037ZM36.3073 16.4962L32.7073 9.29624L30.2925 10.5037L33.8925 17.7037L36.3073 16.4962ZM18.4499 27.9V24.3H15.7499V27.9H18.4499ZM23.8499 27.9V24.3H21.1499V27.9H23.8499ZM29.2499 27.9V24.3H26.5499V27.9H29.2499Z" fill="white"/>
</svg>
