<svg width="26" height="28" viewBox="0 0 26 28" fill="none" xmlns="http://www.w3.org/2000/svg">
<g clip-path="url(#clip0_337_42)">
<path d="M24.375 1.73901H1.625C0.727594 1.73901 0 2.52258 0 3.48901V19.2801C0 20.2466 0.727594 21.0301 1.625 21.0301H4.86322V25.3863C4.86316 25.5588 4.91045 25.7273 4.99915 25.8709C5.08784 26.0144 5.21398 26.1265 5.36169 26.1931C5.46111 26.238 5.56786 26.2612 5.67569 26.2613C5.88882 26.2615 6.09343 26.1713 6.24526 26.0102L10.9431 21.0301H24.375C25.2724 21.0301 26 20.2466 26 19.2801V3.48901C26 2.5226 25.2724 1.73901 24.375 1.73901ZM24.375 19.2797H10.2777L6.48822 23.2968V19.2797H1.625V3.48901H24.375V19.2797ZM5.6875 12.2775H20.3125C20.761 12.2775 21.125 11.8855 21.125 11.4025C21.125 10.9195 20.761 10.5275 20.3125 10.5275H5.6875C5.239 10.5275 4.875 10.9195 4.875 11.4025C4.875 11.8855 5.239 12.2775 5.6875 12.2775ZM5.6875 8.77751H20.3125C20.761 8.77751 21.125 8.38551 21.125 7.90251C21.125 7.41951 20.761 7.02751 20.3125 7.02751H5.6875C5.239 7.02751 4.875 7.41951 4.875 7.90251C4.875 8.38551 5.239 8.77751 5.6875 8.77751ZM5.6875 15.7775H15.4375C15.886 15.7775 16.25 15.3855 16.25 14.9025C16.25 14.4195 15.886 14.0275 15.4375 14.0275H5.6875C5.239 14.0275 4.875 14.4195 4.875 14.9025C4.875 15.3855 5.239 15.7775 5.6875 15.7775Z" fill="white"/>
</g>
<defs>
<clipPath id="clip0_337_42">
<rect width="26" height="28" fill="white"/>
</clipPath>
</defs>
</svg>
