<svg width="22" height="21" viewBox="0 0 22 21" fill="none" xmlns="http://www.w3.org/2000/svg">
<path fill-rule="evenodd" clip-rule="evenodd" d="M1.66989 5.18547C2.83135 7.34259 5.41476 10.6649 7.579 12.8571C10.0737 15.4908 15.9624 19.0983 15.9624 19.0983C16.4171 19.3315 17.681 19.3518 18.0295 19.0157L19.2908 17.8007C19.5517 17.3797 19.6699 16.8918 19.2944 16.5827L16.7835 14.7493C16.3585 14.4689 15.8744 14.4111 15.5258 14.7464L13.9711 16.2436C13.6071 15.994 7.79432 12.2746 4.56975 7.1652L6.16166 5.63143C6.51021 5.29606 6.4525 4.82634 6.1652 4.41279L4.28537 1.97254C3.93911 1.52151 3.37552 1.6336 3.02765 1.96963L1.7657 3.18466C1.2712 3.63308 1.41102 4.68128 1.66989 5.18547ZM0.690486 2.31241L2.67296 0.402659C3.2199 -0.125013 4.10533 -0.122965 4.64988 0.407233L7.60408 4.24271C8.05486 4.89142 8.14545 5.62934 7.59851 6.15701L6.38478 7.32613C7.27847 8.49546 8.35184 9.7706 9.5608 10.9473C10.928 12.2778 12.4494 13.488 13.8176 14.4823L14.9907 13.3531C15.5376 12.8255 16.2991 12.9166 16.9676 13.3577L20.913 16.2383C21.5746 16.6834 21.4551 17.6249 20.9074 18.1526L18.925 20.0617C17.8297 21.117 16.4109 20.7749 14.9711 20.0525C14.9711 20.0525 10.6142 17.6706 6.88864 14.0441C3.38435 10.6329 0.67934 6.141 0.67934 6.141C0.11704 4.63026 -0.404767 3.36708 0.690486 2.31241Z" fill="white"/>
</svg>
