<svg width="45" height="45" viewBox="0 0 45 45" fill="none" xmlns="http://www.w3.org/2000/svg">
<path fill-rule="evenodd" clip-rule="evenodd" d="M27.9001 15.3C27.9001 18.2824 25.4825 20.7 22.5001 20.7C19.5177 20.7 17.1001 18.2824 17.1001 15.3C17.1001 12.3177 19.5177 9.90002 22.5001 9.90002C23.9322 9.90002 25.3058 10.469 26.3184 11.4816C27.3311 12.4943 27.9001 13.8679 27.9001 15.3Z" stroke="white" stroke-width="2" stroke-linecap="round" stroke-linejoin="round"/>
<path fill-rule="evenodd" clip-rule="evenodd" d="M28.8002 26.1H16.2002C13.7149 26.1 11.7002 28.1147 11.7002 30.6C11.7002 33.0852 13.7149 35.1 16.2002 35.1H28.8002C31.2855 35.1 33.3002 33.0852 33.3002 30.6C33.3002 28.1147 31.2855 26.1 28.8002 26.1Z" stroke="white" stroke-width="2" stroke-linecap="round" stroke-linejoin="round"/>
</svg>
