<svg width="63" height="63" viewBox="0 0 63 63" fill="none" xmlns="http://www.w3.org/2000/svg">
<path opacity="0.15" d="M31.5 28.875C37.2989 28.875 42 24.174 42 18.375C42 12.576 37.2989 7.875 31.5 7.875C25.701 7.875 21 12.576 21 18.375C21 24.174 25.701 28.875 31.5 28.875Z" fill="white"/>
<path d="M55.0019 34.125V34.1119M49.875 19.425C50.5596 17.295 52.5961 15.75 55.0019 15.75C57.9694 15.75 60.375 18.1005 60.375 21C60.375 25.2177 55.8666 23.144 55.125 27.5625M21 39.375H42C47.7989 39.375 52.5 44.0761 52.5 49.875V55.125H10.5V49.875C10.5 44.0761 15.201 39.375 21 39.375ZM42 18.375C42 24.174 37.2989 28.875 31.5 28.875C25.701 28.875 21 24.174 21 18.375C21 12.576 25.701 7.875 31.5 7.875C37.2989 7.875 42 12.576 42 18.375Z" stroke="white" stroke-width="4" stroke-linecap="round" stroke-linejoin="round"/>
</svg>
